<svg xmlns="http://www.w3.org/2000/svg" viewBox="0 0 1673.89 118.74"><defs><style>.cls-1{fill:#232221;}</style></defs><title>background_2</title><g id="background2"><polygon class="cls-1" points="845.74 82.32 802.89 39.47 770.19 75.55 703.66 7.89 624.72 111.64 873.93 112.77 845.74 82.32"/><polygon class="cls-1" points="472.49 116.15 405.96 28.19 367.62 78.94 310.11 5.64 251.47 111.64 472.49 116.15"/><polygon class="cls-1" points="21.43 91.34 49.62 36.09 68.79 57.51 106 0 175.91 116.15 0 118.4 21.43 91.34"/></g><g id="mountain_front"><polygon class="cls-1" points="1645.7 82.34 1602.85 39.48 1570.15 75.57 1503.62 7.91 1424.68 111.66 1673.89 112.78 1645.7 82.34"/><polygon class="cls-1" points="1272.45 116.17 1205.92 28.21 1167.58 78.95 1110.07 5.66 1051.43 111.66 1272.45 116.17"/><polygon class="cls-1" points="821.39 91.68 849.58 36.42 868.75 57.85 905.96 0.34 975.88 116.49 799.96 118.74 821.39 91.68"/></g></svg>